<?xml version="1.0" encoding="UTF-8"?>
<svg width="247px" height="270px" viewBox="0 0 247 270" version="1.1" xmlns="http://www.w3.org/2000/svg" xmlns:xlink="http://www.w3.org/1999/xlink">
    <title>recentwork</title>
    <g id="Introduction" stroke="none" stroke-width="1" fill="none" fill-rule="evenodd">
        <g id="Landing" transform="translate(-921.000000, -206.000000)" fill="#FFFFFF" fill-rule="nonzero">
            <g id="Slide-1" transform="translate(159.000000, 0.000000)">
                <g id="recentwork" transform="translate(761.600000, 0.000000)">
                    <g id="Group-4" transform="translate(-5.000000, 181.000000)">
                        <path d="M19,93 L19,69.7 C19,67.3666667 19.2333333,65.2 19.7,63.2 C20.1666667,61.2 20.95,59.45 22.05,57.95 C23.15,56.45 24.6,55.2666667 26.4,54.4 C28.2,53.5333333 30.4,53.1 33,53.1 C33.8666667,53.1 34.7666667,53.15 35.7,53.25 C36.6333333,53.35 37.4333333,53.4666667 38.1,53.6 L38.1,40.4 C36.9666667,40.0666667 35.9333333,39.9 35,39.9 C33.2,39.9 31.4666667,40.1666667 29.8,40.7 C28.1333333,41.2333333 26.5666667,41.9833333 25.1,42.95 C23.6333333,43.9166667 22.3333333,45.0833333 21.2,46.45 C20.0666667,47.8166667 19.1666667,49.3 18.5,50.9 L18.3,50.9 L18.3,41.3 L4.8,41.3 L4.8,93 L19,93 Z M55.8,94.3 C61.6666667,94.3 66.6666667,92.9666667 70.8,90.3 C74.9333333,87.6333333 78,83.2 80,77 L67.5,77 C67.0333333,78.6 65.7666667,80.1166667 63.7,81.55 C61.6333333,82.9833333 59.1666667,83.7 56.3,83.7 C52.3,83.7 49.2333333,82.6666667 47.1,80.6 C44.9666667,78.5333333 43.8,75.2 43.6,70.6 L80.9,70.6 C81.1666667,66.6 80.8333333,62.7666667 79.9,59.1 C78.9666667,55.4333333 77.45,52.1666667 75.35,49.3 C73.25,46.4333333 70.5666667,44.15 67.3,42.45 C64.0333333,40.75 60.2,39.9 55.8,39.9 C51.8666667,39.9 48.2833333,40.6 45.05,42 C41.8166667,43.4 39.0333333,45.3166667 36.7,47.75 C34.3666667,50.1833333 32.5666667,53.0666667 31.3,56.4 C30.0333333,59.7333333 29.4,63.3333333 29.4,67.2 C29.4,71.2 30.0166667,74.8666667 31.25,78.2 C32.4833333,81.5333333 34.2333333,84.4 36.5,86.8 C38.7666667,89.2 41.5333333,91.05 44.8,92.35 C48.0666667,93.65 51.7333333,94.3 55.8,94.3 Z M66.7,61.6 L43.6,61.6 C43.6666667,60.6 43.8833333,59.4666667 44.25,58.2 C44.6166667,56.9333333 45.25,55.7333333 46.15,54.6 C47.05,53.4666667 48.25,52.5166667 49.75,51.75 C51.25,50.9833333 53.1333333,50.6 55.4,50.6 C58.8666667,50.6 61.45,51.5333333 63.15,53.4 C64.85,55.2666667 66.0333333,58 66.7,61.6 Z M103.8,94.3 C110.666667,94.3 116.3,92.5 120.7,88.9 C125.1,85.3 127.766667,80.0666667 128.7,73.2 L115,73.2 C114.533333,76.4 113.383333,78.95 111.55,80.85 C109.716667,82.75 107.1,83.7 103.7,83.7 C101.5,83.7 99.6333333,83.2 98.1,82.2 C96.5666667,81.2 95.35,79.9166667 94.45,78.35 C93.55,76.7833333 92.9,75.0333333 92.5,73.1 C92.1,71.1666667 91.9,69.2666667 91.9,67.4 C91.9,65.4666667 92.1,63.5166667 92.5,61.55 C92.9,59.5833333 93.5833333,57.7833333 94.55,56.15 C95.5166667,54.5166667 96.7666667,53.1833333 98.3,52.15 C99.8333333,51.1166667 101.733333,50.6 104,50.6 C110.066667,50.6 113.566667,53.5666667 114.5,59.5 L128.4,59.5 C128.2,56.1666667 127.4,53.2833333 126,50.85 C124.6,48.4166667 122.783333,46.3833333 120.55,44.75 C118.316667,43.1166667 115.783333,41.9 112.95,41.1 C110.116667,40.3 107.166667,39.9 104.1,39.9 C99.9,39.9 96.1666667,40.6 92.9,42 C89.6333333,43.4 86.8666667,45.35 84.6,47.85 C82.3333333,50.35 80.6166667,53.3166667 79.45,56.75 C78.2833333,60.1833333 77.7,63.9 77.7,67.9 C77.7,71.7666667 78.3333333,75.3166667 79.6,78.55 C80.8666667,81.7833333 82.6333333,84.5666667 84.9,86.9 C87.1666667,89.2333333 89.9166667,91.05 93.15,92.35 C96.3833333,93.65 99.9333333,94.3 103.8,94.3 Z M150.6,94.3 C156.466667,94.3 161.466667,92.9666667 165.6,90.3 C169.733333,87.6333333 172.8,83.2 174.8,77 L162.3,77 C161.833333,78.6 160.566667,80.1166667 158.5,81.55 C156.433333,82.9833333 153.966667,83.7 151.1,83.7 C147.1,83.7 144.033333,82.6666667 141.9,80.6 C139.766667,78.5333333 138.6,75.2 138.4,70.6 L175.7,70.6 C175.966667,66.6 175.633333,62.7666667 174.7,59.1 C173.766667,55.4333333 172.25,52.1666667 170.15,49.3 C168.05,46.4333333 165.366667,44.15 162.1,42.45 C158.833333,40.75 155,39.9 150.6,39.9 C146.666667,39.9 143.083333,40.6 139.85,42 C136.616667,43.4 133.833333,45.3166667 131.5,47.75 C129.166667,50.1833333 127.366667,53.0666667 126.1,56.4 C124.833333,59.7333333 124.2,63.3333333 124.2,67.2 C124.2,71.2 124.816667,74.8666667 126.05,78.2 C127.283333,81.5333333 129.033333,84.4 131.3,86.8 C133.566667,89.2 136.333333,91.05 139.6,92.35 C142.866667,93.65 146.533333,94.3 150.6,94.3 Z M161.5,61.6 L138.4,61.6 C138.466667,60.6 138.683333,59.4666667 139.05,58.2 C139.416667,56.9333333 140.05,55.7333333 140.95,54.6 C141.85,53.4666667 143.05,52.5166667 144.55,51.75 C146.05,50.9833333 147.933333,50.6 150.2,50.6 C153.666667,50.6 156.25,51.5333333 157.95,53.4 C159.65,55.2666667 160.833333,58 161.5,61.6 Z M188.3,263 L188.3,65.9 C188.3,60.6333333 189.166667,56.85 190.9,54.55 C192.633333,52.25 195.433333,51.1 199.3,51.1 C202.7,51.1 205.066667,52.15 206.4,54.25 C207.733333,56.35 208.4,59.5333333 208.4,63.8 L208.4,93 L222.6,93 L222.6,61.2 C222.6,58 222.316667,55.0833333 221.75,52.45 C221.183333,49.8166667 220.2,47.5833333 218.8,45.75 C217.4,43.9166667 215.483333,42.4833333 213.05,41.45 C210.616667,40.4166667 207.5,39.9 203.7,39.9 C200.7,39.9 197.766667,40.5833333 194.9,41.95 C192.033333,43.3166667 189.7,45.5 187.9,48.5 L187.6,48.5 L187.6,41.3 L174.1,41.3 L174.1,263 L188.3,263 Z M243.5,93.5 C244.9,93.5 246.333333,93.4666667 247.8,93.4 C249.266667,93.3333333 250.6,93.2 251.8,93 L251.8,82 C251.133333,82.1333333 250.433333,82.2333333 249.7,82.3 C248.966667,82.3666667 248.2,82.4 247.4,82.4 C245,82.4 243.4,82 242.6,81.2 C241.8,80.4 241.4,78.8 241.4,76.4 L241.4,50.8 L251.8,50.8 L251.8,41.3 L241.4,41.3 L241.4,25.8 L227.2,25.8 L227.2,41.3 L218.6,41.3 L218.6,50.8 L227.2,50.8 L227.2,81.3 C227.2,83.9 227.633333,86 228.5,87.6 C229.366667,89.2 230.55,90.4333333 232.05,91.3 C233.55,92.1666667 235.283333,92.75 237.25,93.05 C239.216667,93.35 241.3,93.5 243.5,93.5 Z M31.1,293 L39.9,258.3 L40.1,258.3 L49.3,293 L63.9,293 L80.2,241.3 L65.6,241.3 L56.1,276.3 L55.9,276.3 L47.1,241.3 L33.3,241.3 L24.7,276.4 L24.5,276.4 L15,241.3 L0,241.3 L16.4,293 L31.1,293 Z M101.3,294.3 C105.366667,294.3 109.05,293.666667 112.35,292.4 C115.65,291.133333 118.466667,289.316667 120.8,286.95 C123.133333,284.583333 124.933333,281.733333 126.2,278.4 C127.466667,275.066667 128.1,271.333333 128.1,267.2 C128.1,263.066667 127.466667,259.316667 126.2,255.95 C124.933333,252.583333 123.133333,249.716667 120.8,247.35 C118.466667,244.983333 115.65,243.15 112.35,241.85 C109.05,240.55 105.366667,239.9 101.3,239.9 C97.2333333,239.9 93.5666667,240.55 90.3,241.85 C87.0333333,243.15 84.2333333,244.983333 81.9,247.35 C79.5666667,249.716667 77.7666667,252.583333 76.5,255.95 C75.2333333,259.316667 74.6,263.066667 74.6,267.2 C74.6,271.333333 75.2333333,275.066667 76.5,278.4 C77.7666667,281.733333 79.5666667,284.583333 81.9,286.95 C84.2333333,289.316667 87.0333333,291.133333 90.3,292.4 C93.5666667,293.666667 97.2333333,294.3 101.3,294.3 Z M101.3,283.7 C98.9,283.7 96.9,283.233333 95.3,282.3 C93.7,281.366667 92.4166667,280.116667 91.45,278.55 C90.4833333,276.983333 89.8,275.216667 89.4,273.25 C89,271.283333 88.8,269.266667 88.8,267.2 C88.8,265.133333 89,263.1 89.4,261.1 C89.8,259.1 90.4833333,257.333333 91.45,255.8 C92.4166667,254.266667 93.7,253.016667 95.3,252.05 C96.9,251.083333 98.9,250.6 101.3,250.6 C103.7,250.6 105.716667,251.083333 107.35,252.05 C108.983333,253.016667 110.283333,254.266667 111.25,255.8 C112.216667,257.333333 112.9,259.1 113.3,261.1 C113.7,263.1 113.9,265.133333 113.9,267.2 C113.9,269.266667 113.7,271.283333 113.3,273.25 C112.9,275.216667 112.216667,276.983333 111.25,278.55 C110.283333,280.116667 108.983333,281.366667 107.35,282.3 C105.716667,283.233333 103.7,283.7 101.3,283.7 Z M141.5,293 L141.5,269.7 C141.5,267.366667 141.733333,265.2 142.2,263.2 C142.666667,261.2 143.45,259.45 144.55,257.95 C145.65,256.45 147.1,255.266667 148.9,254.4 C150.7,253.533333 152.9,253.1 155.5,253.1 C156.366667,253.1 157.266667,253.15 158.2,253.25 C159.133333,253.35 159.933333,253.466667 160.6,253.6 L160.6,240.4 C159.466667,240.066667 158.433333,239.9 157.5,239.9 C155.7,239.9 153.966667,240.166667 152.3,240.7 C150.633333,241.233333 149.066667,241.983333 147.6,242.95 C146.133333,243.916667 144.833333,245.083333 143.7,246.45 C142.566667,247.816667 141.666667,249.3 141,250.9 L140.8,250.9 L140.8,241.3 L127.3,241.3 L127.3,293 L141.5,293 Z M188,293 L188.3,275.2 L193.8,269.9 L208,293 L225.2,293 L203.5,260.3 L223,241.3 L206.2,241.3 L188.3,259.9 L188.3,221.6 L174.1,221.6 L174.1,293 L188,293 Z" id="recentwork"></path>
                    </g>
                </g>
            </g>
        </g>
    </g>
</svg>